<svg xmlns="http://www.w3.org/2000/svg" viewBox="0 0 63.04 56.89"><defs><style>.cls-1{fill:#7b59ff;}</style></defs><title>Asset 1</title><g id="Layer_2" data-name="Layer 2"><g id="OBJECTS"><path class="cls-1" d="M62,0a1.27,1.27,0,0,0-.34,0H52.18A1.33,1.33,0,0,0,51,.69L31.71,35.47,12,.68A1.32,1.32,0,0,0,10.86,0H1.34A1.31,1.31,0,0,0,1,0a1.35,1.35,0,0,0-1,1.3V55.55a1.34,1.34,0,0,0,1.34,1.34h9.52a1.34,1.34,0,0,0,1.34-1.34V23.26L25.84,47.37a1.33,1.33,0,0,0,1.1.67h9.7a1.36,1.36,0,0,0,1.06-.68L50.84,23.68V55.55a1.34,1.34,0,0,0,1.34,1.34H61.7A1.34,1.34,0,0,0,63,55.55V1.34A1.35,1.35,0,0,0,62,0ZM9.52,54.21H2.68V6.43l6.84,12.1ZM12.2,17.82V6.43l18,31.79L27,44Zm38.64.33L36.52,44l-3.26-5.76L50.84,6.52Zm9.52,36.06H53.52V18.85L60.36,6.52Z"/></g></g></svg>