<svg xmlns="http://www.w3.org/2000/svg" viewBox="0 0 62.2 59.83"><defs><style>.cls-1{fill:#414546;fill-rule:evenodd;}</style></defs><title>clock</title><g id="Layer_2" data-name="Layer 2"><g id="Layer_1-2" data-name="Layer 1"><path class="cls-1" d="M30.13,55.63A25.49,25.49,0,0,0,55.27,34.27l2.37,4.1,1.69-2.93a29.69,29.69,0,0,1-29.2,24.39v-4.2ZM26.9,31l.74-.43L15.07,23l1.45-2.44,13.91,8.32,17.4-10.2.25.43,2.23-1.29.28.48-2.23,1.29.29.51L32,29.84l.84.51-1.45,2.44-2.19-1.31-1.51.89L26.9,31ZM33.11,6.42l.46.06-.24,1.64-.46-.07.24-1.63Zm-6.6,45.29.45.07-.24,1.63-.45-.06.24-1.64ZM38.83,7.94l.42.18-.64,1.52-.42-.17.64-1.53ZM21.22,50.19l.42.18L21,51.89l-.43-.17.64-1.53ZM44.38,11.13l.36.28-1,1.3-.36-.28,1-1.3Zm-28.27,36,.36.28-1,1.3-.36-.28,1-1.3ZM48.7,15.44l.27.36-1.32,1-.27-.37,1.32-1ZM12.18,43l.28.36-1.32,1L10.86,44l1.32-1Zm39.6-22.31-1.53.63.17.42L52,21.15l-.17-.42ZM9.41,38.05l.17.43-1.53.62-.17-.42,1.53-.63Zm43.94-11.8.06.45-1.63.24-.07-.45,1.64-.24ZM8.06,32.89l.06.46-1.63.24-.07-.46,1.64-.24ZM53.43,33l-.06.45-1.64-.23.06-.45,1.64.23ZM8.11,26.6,8,27.06l-1.63-.24.06-.45,1.64.23ZM51.94,38.71l-1.53-.63-.17.42,1.53.63.17-.42ZM9.59,21.33l-.17.42-1.53-.62.18-.43,1.52.63ZM48.92,44.1l-1.31-1-.28.36,1.32,1,.27-.36ZM12.5,16.37l-.27.37-1.32-1,.28-.36,1.31,1Zm27,35.24-.66-1.52-.42.18.66,1.52.42-.18Zm-18.09-42L21,9.74l-.65-1.52L20.76,8l.65,1.52Zm23.14,39-1-1.31-.36.28,1,1.31.36-.28ZM16.65,12.29l-.36.28-1-1.31.37-.28,1,1.31ZM33.5,53.36l-.24-1.64-.45.07L33,53.42l.46-.06ZM27,8.05l-.45.06-.23-1.64.45-.06L27,8.05ZM8.67,24l-.12.44L7,24l.12-.44,1.6.43ZM46.85,46.52l-1.17-1.17-.33.33,1.17,1.17.33-.33ZM36.28,52.76l-.43-1.59-.44.11.42,1.6.45-.12ZM24.43,8.55,24,8.67l-.43-1.6L24,7l.43,1.6ZM24,52.88l-.44-.12L24,51.17l.44.11L24,52.88Zm-10.69-6L13,46.52l1.17-1.17.32.33-1.17,1.17ZM7.07,36.28,7,35.83l1.6-.43.12.45-1.6.43Zm45.81-.45-1.59-.43-.12.45,1.59.43.12-.45ZM14.48,14.16l-.32.32L13,13.31l.32-.32,1.17,1.17ZM35.85,8.67l-.44-.12L35.83,7l.45.12-.43,1.6Zm9.83,5.81-.33-.32L46.52,13l.33.32-1.17,1.17Zm5.61,10L51.17,24l1.59-.43.12.44-1.59.43ZM28.62,49.1v4.53h2.59V49.1ZM6.2,31.21V28.62h4.54v2.59Zm22.42-25h2.59v4.54H28.62V6.2Zm20.48,25h4.53v-2l1.89,3.28,2.23,3.85L60,32.45l2.23-3.86H59.82a30.26,30.26,0,0,0-.8-5.67L55,24a25.77,25.77,0,0,1,.65,4.59H53.3l0,0H49.1v2.59ZM41.53,50.59l.48-.28L40.66,48l-.49.28,1.36,2.35ZM19.18,48l.48.28L18.3,50.59l-.48-.28L19.18,48ZM11.6,19.66l.27-.48L9.52,17.82l-.28.48,2.36,1.36Zm0,20.51.27.48L9.52,42l-.28-.48,2.36-1.36Zm7.58-28.3.48-.27L18.3,9.24l-.48.28,1.36,2.35ZM41.53,9.24l.48.28-1.35,2.35-.49-.27,1.36-2.36ZM50.31,42l.28-.48-2.35-1.36-.28.48L50.31,42ZM29.15,59.83A29.68,29.68,0,0,1,22.92,59L24,55a25.65,25.65,0,0,0,5.15.67v4.2Zm-7.72-1.21a29.65,29.65,0,0,1-5.81-2.41l2.11-3.64a24.93,24.93,0,0,0,4.79,2l-1.09,4.06Zm-7.14-3.18,2.1-3.64a25.67,25.67,0,0,1-4.11-3.16l-3,3a29.85,29.85,0,0,0,5,3.83ZM8.22,50.53l3-3A26.4,26.4,0,0,1,8,43.44l-3.64,2.1a30,30,0,0,0,3.83,5Zm-4.6-6.32A30,30,0,0,1,1.21,38.4l4.07-1.08a25.83,25.83,0,0,0,2,4.79l-3.64,2.1ZM.82,36.92A29.12,29.12,0,0,1,0,30.69H4.21a25.65,25.65,0,0,0,.67,5.14L.82,36.92ZM0,29.15a29.68,29.68,0,0,1,.81-6.23L4.88,24a25.65,25.65,0,0,0-.67,5.15Zm1.21-7.72a29.65,29.65,0,0,1,2.41-5.81l3.64,2.11a26.27,26.27,0,0,0-2,4.79L1.21,21.43Zm3.18-7.14L8,16.39a26.88,26.88,0,0,1,3.16-4.11l-3-3a30.39,30.39,0,0,0-3.83,5ZM9.31,8.22l3,3A26.88,26.88,0,0,1,16.39,8l-2.1-3.64a30.39,30.39,0,0,0-5,3.83Zm6.31-4.6a30.27,30.27,0,0,1,5.81-2.41l1.09,4.07a25.55,25.55,0,0,0-4.79,2L15.62,3.62Zm7.3-2.8A29.68,29.68,0,0,1,29.15,0V4.2A26.4,26.4,0,0,0,24,4.88L22.92.82ZM30.69,0a29.77,29.77,0,0,1,6.23.81L35.83,4.88a26.4,26.4,0,0,0-5.14-.68V0Zm7.72,1.21a29.56,29.56,0,0,1,5.8,2.41l-2.1,3.64a26.56,26.56,0,0,0-4.79-2l1.09-4.06Zm7.13,3.18L43.44,8a26.4,26.4,0,0,1,4.11,3.16l3-3a30,30,0,0,0-5-3.83Zm6.07,4.92-3,3a25.67,25.67,0,0,1,3.16,4.11l3.64-2.1a29.85,29.85,0,0,0-3.83-5Zm4.6,6.31a29.65,29.65,0,0,1,2.41,5.81l-4.06,1.09a24.93,24.93,0,0,0-2-4.79Z"/></g></g></svg>