<svg width="0" height="0" class="hidden">
  <symbol version="1.1" id="break-svgrepo-com" xmlns="http://www.w3.org/2000/svg" xmlns:xlink="http://www.w3.org/1999/xlink" x="0px" y="0px" xml:space="preserve" viewBox="0 0 512 512">
    <g>
      <g>
        <g>
          <path d="M256,384c-11.776,0-21.333,9.557-21.333,21.333s9.557,21.333,21.333,21.333c11.776,0,21.333-9.557,21.333-21.333
				S267.776,384,256,384z"></path>
          <path d="M256,128c11.776,0,21.333-9.557,21.333-21.333S267.776,85.333,256,85.333c-11.776,0-21.333,9.557-21.333,21.333
				S244.224,128,256,128z"></path>
          <path d="M256,0C114.618,0,0,114.618,0,256s114.618,256,256,256s256-114.618,256-256S397.382,0,256,0z M256,469.333
				c-117.818,0-213.333-95.515-213.333-213.333S138.182,42.667,256,42.667S469.333,138.182,469.333,256S373.818,469.333,256,469.333
				z"></path>
          <path d="M256,170.667c-47.131,0-85.333,38.202-85.333,85.333s38.202,85.333,85.333,85.333s85.333-38.202,85.333-85.333
				S303.131,170.667,256,170.667z M256,298.667c-23.567,0-42.667-19.099-42.667-42.667s19.099-42.667,42.667-42.667
				s42.667,19.099,42.667,42.667S279.567,298.667,256,298.667z"></path>
          <path d="M405.333,234.667C393.557,234.667,384,244.224,384,256c0,11.776,9.557,21.333,21.333,21.333s21.333-9.557,21.333-21.333
				C426.667,244.224,417.109,234.667,405.333,234.667z"></path>
          <path d="M106.667,234.667c-11.776,0-21.333,9.557-21.333,21.333c0,11.776,9.557,21.333,21.333,21.333S128,267.776,128,256
				C128,244.224,118.443,234.667,106.667,234.667z"></path>
          <path d="M346.513,346.509c-8.341,8.341-8.341,21.845,0,30.165c8.32,8.341,21.824,8.341,30.165,0
				c8.341-8.32,8.341-21.824,0-30.165C368.337,338.167,354.833,338.167,346.513,346.509z"></path>
          <path d="M165.489,165.485c8.341-8.32,8.341-21.824,0-30.165c-8.341-8.341-21.845-8.341-30.165,0
				c-8.341,8.341-8.341,21.845,0,30.165C143.644,173.826,157.148,173.826,165.489,165.485z"></path>
          <path d="M376.674,165.485c8.341-8.32,8.341-21.824,0-30.165c-8.32-8.341-21.824-8.341-30.165,0
				c-8.341,8.341-8.341,21.845,0,30.165C354.85,173.826,368.354,173.826,376.674,165.485z"></path>
          <path d="M135.319,346.509c-8.341,8.341-8.341,21.845,0,30.165c8.341,8.341,21.845,8.341,30.165,0
				c8.341-8.32,8.341-21.824,0-30.165C157.165,338.167,143.661,338.167,135.319,346.509z"></path>
        </g>
      </g>
    </g>
    <g></g>
    <g></g>
    <g></g>
    <g></g>
    <g></g>
    <g></g>
    <g></g>
    <g></g>
    <g></g>
    <g></g>
    <g></g>
    <g></g>
    <g></g>
    <g></g>
    <g></g>
  </symbol>
  <symbol version="1.1" id="check-svgrepo-com" xmlns="http://www.w3.org/2000/svg" xmlns:xlink="http://www.w3.org/1999/xlink" x="0px" y="0px" xml:space="preserve" viewBox="0 0 405.272 405.272">
    <g>
      <path d="M393.401,124.425L179.603,338.208c-15.832,15.835-41.514,15.835-57.361,0L11.878,227.836
		c-15.838-15.835-15.838-41.52,0-57.358c15.841-15.841,41.521-15.841,57.355-0.006l81.698,81.699L336.037,67.064
		c15.841-15.841,41.523-15.829,57.358,0C409.23,82.902,409.23,108.578,393.401,124.425z"></path>
    </g>
    <g></g>
    <g></g>
    <g></g>
    <g></g>
    <g></g>
    <g></g>
    <g></g>
    <g></g>
    <g></g>
    <g></g>
    <g></g>
    <g></g>
    <g></g>
    <g></g>
    <g></g>
  </symbol>
  <symbol version="1.1" id="clock-svgrepo-com" xmlns="http://www.w3.org/2000/svg" xmlns:xlink="http://www.w3.org/1999/xlink" x="0px" y="0px" xml:space="preserve" viewBox="0 0 488 488">
    <g transform="translate(0 -540.36)">
      <g>
        <g>
          <path d="M351.1,846.96l-97.1-67.9v-116.7c0-5.5-4.5-10-10-10s-10,4.5-10,10v122c0,3.3,1.6,6.3,4.3,8.2l101.4,70.9
				c1.7,1.2,3.7,1.8,5.7,1.8v0c3.1,0,6.2-1.5,8.2-4.4C356.7,856.36,355.6,850.16,351.1,846.96z"></path>
          <path d="M416.4,611.96L416.4,611.96c-46.2-46.2-107.4-71.6-172.4-71.6s-126.2,25.4-172.4,71.6C25.4,658.16,0,719.36,0,784.36
				s25.4,126.2,71.6,172.4c46.2,46.2,107.4,71.6,172.4,71.6s126.2-25.4,172.4-71.6s71.6-107.4,71.6-172.4S462.6,658.16,416.4,611.96
				z M254,1008.16L254,1008.16v-40.8c0-5.5-4.5-10-10-10s-10,4.5-10,10v40.8c-115.6-5.1-208.7-98.2-213.8-213.8H61
				c5.5,0,10-4.5,10-10s-4.5-10-10-10H20.2c5.1-115.6,98.2-208.7,213.8-213.8v40.8c0,5.5,4.5,10,10,10s10-4.5,10-10v-40.8
				c115.6,5.1,208.7,98.2,213.8,213.8H427c-5.5,0-10,4.5-10,10s4.5,10,10,10h40.8C462.7,909.96,369.6,1003.06,254,1008.16z"></path>
        </g>
      </g>
    </g>
    <g></g>
    <g></g>
    <g></g>
    <g></g>
    <g></g>
    <g></g>
    <g></g>
    <g></g>
    <g></g>
    <g></g>
    <g></g>
    <g></g>
    <g></g>
    <g></g>
    <g></g>
  </symbol>
  <symbol xmlns="http://www.w3.org/2000/svg" viewBox="0 0 24 24" id="double-quotes-l-svgrepo-com">
    <g>
      <path fill="none" d="M0 0h24v24H0z"></path>
      <path d="M4.583 17.321C3.553 16.227 3 15 3 13.011c0-3.5 2.457-6.637 6.03-8.188l.893 1.378c-3.335 1.804-3.987 4.145-4.247 5.621.537-.278 1.24-.375 1.929-.311 1.804.167 3.226 1.648 3.226 3.489a3.5 3.5 0 0 1-3.5 3.5c-1.073 0-2.099-.49-2.748-1.179zm10 0C13.553 16.227 13 15 13 13.011c0-3.5 2.457-6.637 6.03-8.188l.893 1.378c-3.335 1.804-3.987 4.145-4.247 5.621.537-.278 1.24-.375 1.929-.311 1.804.167 3.226 1.648 3.226 3.489a3.5 3.5 0 0 1-3.5 3.5c-1.073 0-2.099-.49-2.748-1.179z"></path>
    </g>
  </symbol>
  <symbol version="1.1" id="graph-svgrepo-com" xmlns="http://www.w3.org/2000/svg" xmlns:xlink="http://www.w3.org/1999/xlink" x="0px" y="0px" xml:space="preserve" viewBox="0 0 60 60">
    <g>
      <path d="M59,55.5v-39H47v39h-3v-31H32v31h-3v-23H17v23h-3v-14H2v14H1c-0.552,0-1,0.447-1,1s0.448,1,1,1h1h12h3h12h3h12h3h12
		c0.552,0,1-0.447,1-1S59.552,55.5,59,55.5z"></path>
      <path d="M8.03,27.83c0.169,0,0.342-0.043,0.499-0.134l36.269-20.94l-2.27,4.99c-0.229,0.503-0.007,1.096,0.496,1.324
		c0.134,0.062,0.275,0.09,0.414,0.09c0.38,0,0.743-0.218,0.911-0.586l3.562-7.83c0.011-0.025,0.009-0.052,0.018-0.078
		c0.019-0.053,0.034-0.104,0.044-0.16c0.005-0.028,0.021-0.051,0.023-0.08c0.001-0.012-0.004-0.022-0.003-0.034
		c0.002-0.038-0.002-0.073-0.004-0.111c-0.003-0.055-0.012-0.107-0.024-0.162c-0.008-0.038-0.01-0.077-0.023-0.114
		c-0.012-0.036-0.033-0.066-0.049-0.101C47.88,3.881,47.88,3.854,47.866,3.83c-0.014-0.024-0.038-0.038-0.054-0.061
		c-0.021-0.031-0.037-0.064-0.062-0.092c-0.026-0.03-0.059-0.051-0.089-0.078c-0.041-0.037-0.082-0.071-0.128-0.101
		c-0.031-0.02-0.059-0.042-0.093-0.059c-0.011-0.005-0.017-0.015-0.028-0.02c-0.025-0.011-0.052-0.009-0.077-0.018
		c-0.055-0.02-0.109-0.034-0.166-0.044c-0.026-0.005-0.047-0.02-0.074-0.022l-8.562-0.83c-0.555-0.056-1.039,0.35-1.092,0.898
		c-0.054,0.55,0.349,1.039,0.898,1.092l5.456,0.529L7.529,25.964C7.05,26.24,6.887,26.852,7.163,27.33
		C7.348,27.651,7.684,27.83,8.03,27.83z"></path>
    </g>
    <g></g>
    <g></g>
    <g></g>
    <g></g>
    <g></g>
    <g></g>
    <g></g>
    <g></g>
    <g></g>
    <g></g>
    <g></g>
    <g></g>
    <g></g>
    <g></g>
    <g></g>
  </symbol>
  <symbol version="1.1" id="landscape-svgrepo-com" xmlns="http://www.w3.org/2000/svg" xmlns:xlink="http://www.w3.org/1999/xlink" x="0px" y="0px" xml:space="preserve" viewBox="0 0 491.101 491.101">
    <g>
      <g>
        <path d="M470.4,0.5H20.8C9.4,0.5,0,9.9,0,21.3v448.5c0,11.4,9.4,20.8,20.8,20.8h449.5c11.4,0,19.8-8.3,20.8-19.8V21.3
			C491.2,9.8,481.8,0.5,470.4,0.5z M449.5,42.1v184c-40.6,5.6-74.4,18-102.6,34.5c-164.8-9.7-259.7,62-305.3,112.8V42.1H449.5z
			 M41.7,434.8c1-1.1,55.1-122.3,253-133.7c-52.5,52.7-73.5,118-80.9,148.9H41.7V434.8z M254.6,450c13-49,57.4-160.8,194.9-182.7
			V450H254.6z"></path>
        <path d="M165.5,222.1c39.5,0,70.8-32.3,71.8-71.8c0-39.5-32.3-71.8-71.8-71.8s-71.8,32.3-71.8,71.8
			C93.7,189.8,125.9,222.1,165.5,222.1z M165.5,120.1c16.6,0,31.2,13.5,31.2,31.2s-14.6,31.2-31.2,31.2c-17.7,0-31.2-13.5-31.2-31.2
			S148.8,120.1,165.5,120.1z"></path>
      </g>
    </g>
    <g></g>
    <g></g>
    <g></g>
    <g></g>
    <g></g>
    <g></g>
    <g></g>
    <g></g>
    <g></g>
    <g></g>
    <g></g>
    <g></g>
    <g></g>
    <g></g>
    <g></g>
  </symbol>
  <symbol version="1.1" id="magnifier-svgrepo-com" xmlns="http://www.w3.org/2000/svg" xmlns:xlink="http://www.w3.org/1999/xlink" x="0px" y="0px" xml:space="preserve" viewBox="0 0 485.104 485.104">
    <g>
      <path d="M110.028,115.171c-4.76-4.767-12.483-4.752-17.227,0c-32.314,32.33-32.314,84.898-0.016,117.197
		c2.38,2.379,5.487,3.569,8.614,3.569c3.123,0,6.234-1.19,8.613-3.569c4.76-4.76,4.76-12.469,0-17.228
		c-22.795-22.803-22.795-59.923,0.016-82.742C114.788,127.64,114.788,119.923,110.028,115.171z"></path>
      <path d="M471.481,405.861L324.842,259.23c37.405-66.25,28.109-151.948-28.217-208.317C263.787,18.075,220.133,0,173.718,0
		C127.287,0,83.633,18.075,50.81,50.913c-67.717,67.74-67.701,177.979,0.02,245.738c32.85,32.823,76.488,50.897,122.919,50.897
		c30.489,0,59.708-7.939,85.518-22.595L405.824,471.51c18.113,18.121,47.493,18.129,65.641,0
		c8.706-8.71,13.593-20.512,13.608-32.823C485.073,426.37,480.171,414.567,471.481,405.861z M85.28,262.191
		c-48.729-48.756-48.729-128.079-0.016-176.828c23.62-23.627,55.029-36.634,88.453-36.634c33.407,0,64.816,13.007,88.451,36.627
		c48.715,48.756,48.699,128.094-0.015,176.85c-23.62,23.612-55.014,36.612-88.406,36.612
		C140.341,298.818,108.919,285.811,85.28,262.191z"></path>
    </g>
    <g></g>
    <g></g>
    <g></g>
    <g></g>
    <g></g>
    <g></g>
    <g></g>
    <g></g>
    <g></g>
    <g></g>
    <g></g>
    <g></g>
    <g></g>
    <g></g>
    <g></g>
  </symbol>
  <symbol version="1.1" id="menu-svgrepo-com" xmlns="http://www.w3.org/2000/svg" xmlns:xlink="http://www.w3.org/1999/xlink" x="0px" y="0px" xml:space="preserve" viewBox="0 0 377 377">
    <g>
      <circle cx="15" cy="88.5" r="15"></circle>
      <rect x="75" y="73.5" width="302" height="30"></rect>
      <circle cx="15" cy="288.5" r="15"></circle>
      <rect x="75" y="273.5" width="302" height="30"></rect>
      <circle cx="15" cy="188.5" r="15"></circle>
      <rect x="75" y="173.5" width="302" height="30"></rect>
    </g>
    <g></g>
    <g></g>
    <g></g>
    <g></g>
    <g></g>
    <g></g>
    <g></g>
    <g></g>
    <g></g>
    <g></g>
    <g></g>
    <g></g>
    <g></g>
    <g></g>
    <g></g>
  </symbol>
  <symbol version="1.1" id="tap-svgrepo-com" xmlns="http://www.w3.org/2000/svg" xmlns:xlink="http://www.w3.org/1999/xlink" x="0px" y="0px" xml:space="preserve" viewBox="0 0 56.771 56.771">
    <g>
      <g>
        <path d="M40.658,22.63c-0.806,0-1.417,0.378-1.878,0.927c-0.014-0.172-0.022-0.32-0.022-0.438c0-2.513-1.388-4.136-3.537-4.136
			c-0.951,0-1.677,0.264-2.218,0.637c-0.325-1.122-1.278-2.367-3.102-2.367c-1.006,0-1.779,0.301-2.354,0.681
			c-0.023-2.931-0.046-5.89-0.046-6.112c0-1.035-1.242-3.049-3.518-3.049c-1.957,0-3.049,1.838-3.386,2.923
			c-0.026,0.086-0.042,0.175-0.044,0.264l-0.474,14.3c-0.829-1.565-2.016-3.063-2.909-3.519c-1.03-0.528-2.785-0.17-3.825,0.781
			c-0.962,0.88-1.214,2.13-0.692,3.429c0.417,1.034,0.669,2.249,0.961,3.656c0.373,1.794,0.837,4.026,1.824,6.749
			c1.585,4.375,6.534,8.995,7.914,10.225v3.288c0,3.256,2.653,5.904,5.914,5.904h6.477c3.261,0,5.914-2.65,5.914-5.909v-3.95
			c1.664-2.281,2.657-6.387,2.7-6.567c0.018-0.076,0.027-0.154,0.027-0.232V26.448C44.385,24.164,42.887,22.63,40.658,22.63z
			 M42.385,39.992c-0.312,1.255-1.285,4.459-2.502,5.947c-0.146,0.179-0.226,0.402-0.226,0.633v4.29
			c0,2.155-1.756,3.909-3.914,3.909h-6.477c-2.158,0-3.914-1.751-3.914-3.904v-3.742c0-0.293-0.128-0.571-0.352-0.761
			c-0.06-0.052-6.054-5.197-7.683-9.691c-0.938-2.588-1.368-4.652-1.746-6.475c-0.312-1.5-0.581-2.796-1.064-3.995
			c-0.26-0.646-0.059-0.963,0.144-1.167c0.396-0.396,1.039-0.544,1.397-0.544c0.092,0,0.165,0.01,0.21,0.028
			c0.674,0.345,2.313,2.669,2.737,4.35c0.173,0.683,0.26,1.332,0.336,1.903c0.146,1.093,0.263,1.955,0.916,2.476
			c0.296,0.235,0.699,0.283,1.042,0.126c0.343-0.159,0.567-0.497,0.58-0.875l0.673-20.316c0.138-0.348,0.628-1.412,1.437-1.412
			c1.159,0,1.517,1.075,1.518,1.05c0,0.47,0.094,12.068,0.094,12.068c0.004,0.528,0.419,0.962,0.946,0.99
			c0.531,0.056,0.985-0.357,1.047-0.882l0.444-3.785c0.185-0.288,0.736-0.961,1.868-0.961c1.01,0,1.198,0.837,1.24,1.268
			l0.627,4.057c0.081,0.521,0.556,0.891,1.077,0.843c0.525-0.047,0.924-0.493,0.911-1.02l-0.062-2.595
			c0.107-0.259,0.463-0.822,1.526-0.822c1.271,0,1.537,1.161,1.537,2.136c0,1.211,0.58,4.338,0.646,4.69
			c0.091,0.488,0.53,0.851,1.025,0.813c0.497-0.021,0.903-0.403,0.953-0.898c0.142-1.401,0.744-3.094,1.277-3.094
			c1.428,0,1.727,0.989,1.727,1.818L42.385,39.992L42.385,39.992z"></path>
        <path d="M29.259,11.106c-0.124,0.538,0.211,1.075,0.75,1.199l2.923,0.675c0.076,0.018,0.151,0.025,0.226,0.025
			c0.455,0,0.867-0.313,0.974-0.775c0.124-0.538-0.211-1.075-0.75-1.199l-2.923-0.675C29.923,10.233,29.384,10.567,29.259,11.106z"></path>
        <path d="M24.384,5c0.552,0,1-0.447,1-1V1c0-0.553-0.448-1-1-1s-1,0.447-1,1v3C23.384,4.553,23.832,5,24.384,5z"></path>
        <path d="M29.082,7.268c0.221,0,0.444-0.073,0.629-0.223l2.331-1.888c0.429-0.348,0.495-0.977,0.148-1.406
			c-0.349-0.43-0.979-0.495-1.407-0.148L28.452,5.49c-0.429,0.348-0.495,0.977-0.148,1.406C28.502,7.141,28.791,7.268,29.082,7.268z
			"></path>
        <path d="M19.056,7.045c0.185,0.149,0.408,0.223,0.629,0.223c0.291,0,0.58-0.127,0.778-0.371c0.347-0.429,0.281-1.059-0.148-1.406
			l-2.332-1.888c-0.43-0.347-1.059-0.281-1.407,0.148c-0.347,0.429-0.281,1.059,0.148,1.406L19.056,7.045z"></path>
        <path d="M15.609,13.006c0.075,0,0.15-0.008,0.226-0.025l2.923-0.675c0.538-0.124,0.873-0.661,0.75-1.199
			c-0.125-0.539-0.664-0.876-1.2-0.75l-2.923,0.675c-0.538,0.124-0.873,0.661-0.75,1.199C14.743,12.693,15.154,13.006,15.609,13.006
			z"></path>
      </g>
    </g>
    <g></g>
    <g></g>
    <g></g>
    <g></g>
    <g></g>
    <g></g>
    <g></g>
    <g></g>
    <g></g>
    <g></g>
    <g></g>
    <g></g>
    <g></g>
    <g></g>
    <g></g>
  </symbol>
  <symbol version="1.1" id="web-development-svgrepo-com" xmlns="http://www.w3.org/2000/svg" xmlns:xlink="http://www.w3.org/1999/xlink" x="0px" y="0px" xml:space="preserve" viewBox="0 0 419.931 419.931">
    <g>
      <g>
        <g>
          <path d="M282.895,352.367c-2.176-1.324-4.072-3.099-5.579-5.25c-0.696-0.992-1.284-2.041-1.771-3.125H28.282V100.276h335.624
				v159.138c7.165,0.647,13.177,5.353,15.701,11.797c2.235-1.225,4.726-1.982,7.344-2.213c1.771-0.154,3.53-0.044,5.236,0.293
				V39.561c0-12.996-10.571-23.569-23.566-23.569H23.568C10.573,15.992,0,26.565,0,39.561v309.146
				c0,12.996,10.573,23.568,23.568,23.568h257.179c-2.007-4.064-2.483-8.652-1.302-13.066
				C280.126,356.67,281.304,354.354,282.895,352.367z M338.025,55.569c0-4.806,3.896-8.703,8.702-8.703h8.702
				c4.807,0,8.702,3.896,8.702,8.703v9.863c0,4.806-3.896,8.702-8.702,8.702h-8.702c-4.807,0-8.702-3.896-8.702-8.702V55.569z
				 M297.56,55.569c0-4.806,3.896-8.703,8.702-8.703h8.703c4.807,0,8.702,3.896,8.702,8.703v9.863c0,4.806-3.896,8.702-8.702,8.702
				h-8.703c-4.806,0-8.702-3.896-8.702-8.702V55.569z M257.094,55.569c0-4.806,3.897-8.703,8.702-8.703h8.702
				c4.807,0,8.703,3.896,8.703,8.703v9.863c0,4.806-3.896,8.702-8.703,8.702h-8.702c-4.805,0-8.702-3.896-8.702-8.702V55.569z"></path>
          <path d="M419.875,335.77l-2.615-14.83c-0.353-1.997-2.256-3.331-4.255-2.979l-13.188,2.324c-1.583-3.715-3.605-7.195-6.005-10.38
				l8.614-10.268c0.626-0.744,0.931-1.709,0.847-2.68c-0.086-0.971-0.554-1.867-1.3-2.494l-11.534-9.68
				c-0.746-0.626-1.713-0.93-2.683-0.845c-0.971,0.085-1.867,0.552-2.493,1.298l-8.606,10.26c-3.533-1.8-7.312-3.188-11.271-4.104
				v-13.392c0-2.028-1.645-3.674-3.673-3.674h-15.06c-2.027,0-3.673,1.646-3.673,3.674v13.392
				c-3.961,0.915-7.736,2.304-11.271,4.104l-8.608-10.259c-1.304-1.554-3.62-1.756-5.175-0.453l-11.535,9.679
				c-0.746,0.627-1.213,1.523-1.299,2.494c-0.084,0.971,0.22,1.937,0.846,2.683l8.615,10.266c-2.396,3.184-4.422,6.666-6.005,10.38
				l-13.188-2.325c-1.994-0.351-3.901,0.982-4.255,2.979l-2.614,14.83c-0.169,0.959,0.05,1.945,0.607,2.744
				c0.561,0.799,1.41,1.342,2.37,1.511l13.198,2.326c0.215,4.089,0.927,8.045,2.073,11.812l-11.6,6.695
				c-0.844,0.485-1.459,1.289-1.712,2.229c-0.252,0.941-0.119,1.943,0.367,2.787l7.529,13.041c0.485,0.844,1.289,1.459,2.229,1.711
				c0.313,0.084,0.632,0.125,0.951,0.125c0.639,0,1.272-0.166,1.836-0.492l11.609-6.703c2.73,2.925,5.812,5.517,9.18,7.709
				l-4.584,12.593c-0.332,0.916-0.289,1.926,0.123,2.809s1.157,1.566,2.072,1.898l14.148,5.149c0.406,0.148,0.832,0.224,1.257,0.224
				c0.53,0,1.063-0.115,1.554-0.345c0.883-0.411,1.564-1.157,1.897-2.073l4.583-12.593c1.965,0.238,3.965,0.361,5.994,0.361
				s4.029-0.125,5.994-0.361l4.584,12.593c0.332,0.916,1.016,1.662,1.897,2.073c0.49,0.229,1.021,0.345,1.554,0.345
				c0.424,0,0.85-0.074,1.256-0.224l14.15-5.149c0.913-0.332,1.659-1.017,2.07-1.898c0.412-0.883,0.456-1.893,0.123-2.809
				l-4.584-12.591c3.365-2.192,6.447-4.786,9.18-7.709l11.609,6.703c0.563,0.324,1.197,0.492,1.836,0.492
				c0.318,0,0.64-0.043,0.951-0.125c0.941-0.252,1.743-0.869,2.229-1.711l7.529-13.043c0.486-0.842,0.619-1.846,0.367-2.787
				c-0.253-0.938-0.868-1.742-1.712-2.229l-11.598-6.693c1.146-3.768,1.856-7.724,2.071-11.812l13.198-2.327
				c0.96-0.169,1.812-0.712,2.37-1.511C419.825,337.715,420.044,336.729,419.875,335.77z M354.184,359.336
				c-11.155,0-20.2-9.045-20.2-20.201s9.046-20.2,20.2-20.2c11.156,0,20.201,9.044,20.201,20.2S365.34,359.336,354.184,359.336z"></path>
          <g>
            <path d="M164.695,235.373c0-4.752-2.785-9.117-7.096-11.119l-39.455-18.332l39.456-18.334c4.31-2.004,7.095-6.368,7.095-11.118
					v-0.319c0-4.21-2.119-8.075-5.665-10.334c-1.962-1.253-4.247-1.916-6.606-1.916c-1.778,0-3.563,0.391-5.16,1.133l-63.078,29.333
					c-4.309,2.004-7.092,6.368-7.092,11.117v0.877c0,4.743,2.782,9.104,7.093,11.118l63.084,29.336
					c1.631,0.755,3.368,1.138,5.162,1.138c2.338,0,4.616-0.664,6.597-1.924c3.548-2.268,5.666-6.13,5.666-10.335L164.695,235.373
					L164.695,235.373z"></path>
            <path d="M226.932,134.012c-2.301-3.15-6.002-5.03-9.901-5.03h-0.314c-5.354,0-10.048,3.425-11.679,8.516L163.478,266.27
					c-1.183,3.718-0.517,7.813,1.781,10.962c2.301,3.148,6.002,5.029,9.901,5.029h0.315c5.352,0,10.043-3.426,11.672-8.516
					l41.555-128.762C229.896,141.268,229.234,137.167,226.932,134.012z"></path>
            <path d="M308.001,194.366l-63.079-29.333c-1.592-0.74-3.374-1.131-5.152-1.131c-2.358,0-4.644,0.661-6.605,1.912
					c-3.552,2.263-5.671,6.127-5.671,10.337v0.319c0,4.746,2.783,9.111,7.097,11.123l39.454,18.33l-39.455,18.331
					c-4.311,2.002-7.096,6.367-7.096,11.119v0.321c0,4.205,2.119,8.066,5.669,10.336c1.974,1.258,4.254,1.923,6.595,1.923
					c1.792,0,3.527-0.383,5.169-1.141l63.082-29.336c4.307-2.009,7.088-6.371,7.088-11.114v-0.877
					C315.094,200.735,312.311,196.371,308.001,194.366z"></path>
          </g>
        </g>
      </g>
    </g>
    <g></g>
    <g></g>
    <g></g>
    <g></g>
    <g></g>
    <g></g>
    <g></g>
    <g></g>
    <g></g>
    <g></g>
    <g></g>
    <g></g>
    <g></g>
    <g></g>
    <g></g>
  </symbol>
  <symbol version="1.1" id="wordpress-svgrepo-com" xmlns="http://www.w3.org/2000/svg" xmlns:xlink="http://www.w3.org/1999/xlink" x="0px" y="0px" xml:space="preserve" viewBox="0 0 512 512">
    <g>
      <g>
        <g>
          <path d="M41.073,152.466c-1.425-3.903-5.074-6.551-9.226-6.696c-4.175-0.132-7.977,2.245-9.669,6.039
				C7.468,184.791,0.009,219.844,0.009,255.99c0,48.964,13.875,96.559,40.124,137.639c25.548,39.983,61.564,72.053,104.158,92.743
				c1.418,0.69,2.941,1.025,4.454,1.025c2.474,0,4.921-0.9,6.836-2.629c3.085-2.785,4.172-7.164,2.747-11.068L41.073,152.466z
				 M20.408,255.99c0-24.264,3.652-47.994,10.883-70.837l98.5,269.854C61.706,412.039,20.408,337.973,20.408,255.99z"></path>
          <path d="M345.376,480.765l-75.473-206.771c-1.471-4.028-5.3-6.702-9.58-6.702c-0.032,0-0.064,0-0.096,0
				c-4.318,0.041-8.143,2.796-9.55,6.88l-73.753,214.293c-0.907,2.633-0.697,5.523,0.581,7.998c1.278,2.475,3.513,4.319,6.185,5.106
				C207.225,508.492,231.555,512,256.001,512c29.053,0,57.656-4.883,85.015-14.514c2.907-1.024,5.195-3.307,6.226-6.212
				c1.031-2.905,0.692-6.121-0.922-8.747C345.897,481.836,345.594,481.272,345.376,480.765z M256.001,491.602
				c-18.944,0-37.814-2.291-56.238-6.818l60.841-176.773l63.36,173.59C301.937,488.241,279.126,491.602,256.001,491.602z"></path>
          <path d="M373.292,403.888c4.314,0,8.167-2.717,9.612-6.788l27.138-76.438c13.018-33.396,19.346-60.555,19.346-83.022
				c0-33.87-10.023-51.413-18.869-66.891c-0.054-0.094-0.109-0.189-0.167-0.283c-0.982-1.597-1.959-3.175-2.926-4.737
				c-10.569-17.065-19.698-31.803-19.698-47.571c0-16.074,11.879-33.424,31.069-33.424c0.317,0,0.804,0.041,1.321,0.085
				c0.404,0.034,0.805,0.067,1.209,0.093c4.329,0.281,8.341-2.2,10.038-6.179c1.696-3.979,0.699-8.597-2.492-11.52
				C381.573,23.87,320.18,0,256.001,0C169.666,0,89.708,43.127,42.115,115.365c-2.031,3.083-2.238,7.022-0.541,10.3
				c1.696,3.277,5.032,5.383,8.72,5.505c6.281,0.208,11.719,0.314,16.16,0.314c23.686,0,58.376-2.55,65.182-3.068
				c1.089,1.962,1.193,6.64,0.137,8.39c-2.685,0.3-14.319,1.553-26.893,2.209c-3.185,0.166-6.108,1.811-7.902,4.449
				c-1.794,2.636-2.251,5.961-1.235,8.984l80.48,239.565c1.395,4.153,5.286,6.951,9.668,6.951c0.004,0,0.008,0,0.011,0
				c4.386-0.005,8.278-2.813,9.665-6.973l53.793-161.323c0.738-2.214,0.696-4.613-0.122-6.8l-29.269-78.243
				c-1.416-3.782-4.928-6.373-8.959-6.608c-11.584-0.675-22.772-1.988-24.791-2.231c-0.919-1.946-0.707-6.437,0.377-8.368
				c7.002,0.524,42.099,3.064,64.336,3.064c23.69,0,58.382-2.55,65.184-3.068c1.09,1.961,1.196,6.641,0.139,8.389
				c-2.677,0.3-14.328,1.554-26.896,2.211c-3.193,0.166-6.123,1.821-7.916,4.469c-1.792,2.648-2.239,5.983-1.207,9.009
				l83.404,244.49c1.401,4.108,5.25,6.879,9.59,6.906C373.25,403.888,373.27,403.888,373.292,403.888z M303.83,158.48
				c8.698-0.708,14.988-1.437,15.375-1.483c11.726-1.386,19.321-12.743,18.061-27.005c-1.206-13.633-10.034-22.696-21.423-22.014
				c-0.065,0.004-0.133,0.008-0.198,0.013c-0.395,0.031-39.714,3.092-64.716,3.092c-23.477,0-63.551-3.063-63.953-3.093
				c-0.061-0.005-0.122-0.009-0.184-0.012c-11.588-0.695-20.652,9.083-21.489,23.228c-0.836,14.126,6.861,24.914,18.351,25.817
				c1.624,0.197,9.756,1.164,19.509,1.907l25.701,68.706l-43.012,128.993l-66.564-198.143c8.736-0.709,15.053-1.442,15.444-1.488
				c11.724-1.386,19.316-12.747,18.055-27.012c-1.207-13.629-10.032-22.697-21.419-22.007c-0.065,0.004-0.133,0.008-0.198,0.013
				c-0.374,0.031-35.884,2.795-60.879,3.071c44.547-57.103,112.646-90.666,185.71-90.666c51.924,0,101.868,16.978,142.757,48.187
				c-18.452,8.187-31.428,27.326-31.428,49.574c0,21.573,11.053,39.419,22.755,58.312c0.927,1.497,1.864,3.01,2.806,4.541
				c8.29,14.509,16.097,28.269,16.097,56.629c0,19.642-6.058,45.128-18.008,75.755c-0.038,0.098-0.074,0.196-0.109,0.295
				l-17.388,48.972L303.83,158.48z"></path>
          <path d="M480.631,133.175c-2.361-4.308-7.461-6.319-12.133-4.786c-4.669,1.538-7.577,6.188-6.917,11.059
				c1.038,7.665,1.566,15.707,1.566,23.901c0,26.824-5.711,53.594-17.971,84.247c-0.06,0.15-0.116,0.302-0.169,0.454l-75.07,217.056
				c-1.393,4.031-0.132,8.504,3.164,11.213c1.868,1.534,4.166,2.319,6.479,2.319c1.765,0,3.539-0.458,5.132-1.388
				c38.017-22.163,69.889-53.921,92.171-91.842c22.969-39.088,35.109-83.839,35.109-129.417
				C511.991,213.087,501.147,170.617,480.631,133.175z M399.158,443.029l65.051-188.086c9.331-23.375,15.137-44.781,17.736-65.726
				c6.365,21.591,9.65,44.116,9.65,66.774C491.595,329.489,456.798,398.762,399.158,443.029z"></path>
        </g>
      </g>
    </g>
    <g>
      <g>
        <path d="M262.286,369.734c-5.342-1.782-11.119,1.108-12.901,6.451l-1.36,4.079c-1.781,5.343,1.108,11.119,6.451,12.901
			c1.07,0.357,2.157,0.526,3.226,0.526c4.27,0,8.25-2.703,9.675-6.977l1.36-4.079C270.518,377.292,267.629,371.516,262.286,369.734z
			"></path>
      </g>
    </g>
    <g>
      <g>
        <path d="M249.707,407.472c-5.344-1.786-11.119,1.108-12.901,6.45l-16.999,50.996c-1.781,5.343,1.108,11.119,6.451,12.9
			c1.07,0.358,2.157,0.527,3.226,0.527c4.27,0,8.25-2.703,9.675-6.977l16.998-50.996
			C257.939,415.029,255.05,409.253,249.707,407.472z"></path>
      </g>
    </g>
    <g></g>
    <g></g>
    <g></g>
    <g></g>
    <g></g>
    <g></g>
    <g></g>
    <g></g>
    <g></g>
    <g></g>
    <g></g>
    <g></g>
    <g></g>
    <g></g>
    <g></g>
  </symbol>
</svg>